#!OML:ASF I:\Random Stuff\random\construction\7_22_03\Session 2\subj1.ASF
:FULLY-SPECIFIED
:DEGREES
1024
root 5.76192 17.5474 2.32933 279.198 89.4707 273.312
lowerback 0.0999369 1.08118 0.473859
upperback -1.86047 1.4699 0.467522
thorax -1.96201 0.736801 0.186756
lowerneck -21.739 1.38985 2.17068
upperneck 28.0095 1.44681 0.401679
head 13.0208 1.06876 0.0716859
rclavicle 1.50331e-015 -7.15625e-015
rhumerus -6.69814 -23.6254 -4.60009
rradius 18.3709
rwrist 8.35033
rhand -18.4233 11.2592
rfingers 7.12502
rthumb 7.86184 -18.5746
lclavicle 1.50331e-015 -7.15625e-015
lhumerus -11.1585 10.258 9.55513
lradius 39.0883
lwrist 26.8816
lhand -24.2665 57.8111
lfingers 7.12502
lthumb 2.21996 -272.221
rfemur -7.14661 12.9169 23.2395
rtibia 21.305
rfoot -14.0295 -20.3254
rtoes -16.4324
lfemur -12.9745 -17.4728 -18.7857
ltibia 28.1548
lfoot -18.9945 11.8617
ltoes -27.9877
1025
root 5.76901 17.5453 2.33006 283.456 89.4091 277.615
lowerback 0.117521 1.04758 0.501139
upperback -1.84739 1.42511 0.463188
thorax -1.95767 0.713828 0.167661
lowerneck -21.7301 1.44027 2.21213
upperneck 27.9952 1.50385 0.401339
head 13.0142 1.09775 0.0742084
rclavicle 2.40964e-014 6.55989e-015
rhumerus -6.53975 -24.19 -4.71436
rradius 18.3643
rwrist 8.3562
rhand -18.6788 11.5341
rfingers 7.12502
rthumb 7.61517 -18.3088
lclavicle 2.40964e-014 6.55989e-015
lhumerus -11.2443 10.3246 9.39801
lradius 39.1565
lwrist 27.3128
lhand -24.3102 58.1184
lfingers 7.12502
lthumb 2.17774 -271.913
rfemur -7.06924 12.6116 23.294
rtibia 21.2541
rfoot -14.0625 -19.9959
rtoes -16.4935
lfemur -12.9141 -17.4096 -18.7496
ltibia 28.2031
lfoot -19.0319 11.8604
ltoes -28.0172
1026
root 5.77527 17.5433 2.3302 287.23 89.3344 281.464
lowerback 0.159216 1.01419 0.534897
upperback -1.81816 1.38052 0.460032
thorax -1.95022 0.690767 0.145866
lowerneck -21.651 1.54267 2.44246
upperneck 27.9207 1.63069 0.202909
head 12.9732 1.14928 -0.0211247
rclavicle 4.76462e-015 -6.95746e-016
rhumerus -6.34349 -24.6613 -4.85031
rradius 18.3291
rwrist 8.45777
rhand -18.8028 11.6514
rfingers 7.12502
rthumb 7.49546 -18.1958
lclavicle 4.76462e-015 -6.95746e-016
lhumerus -11.3731 10.4081 9.20773
lradius 39.195
lwrist 27.7088
lhand -24.2947 58.288
lfingers 7.12502
lthumb 2.19274 -271.743
rfemur -6.95115 12.3591 23.3657
rtibia 21.1915
rfoot -14.0302 -19.7118
rtoes -16.8689
lfemur -12.819 -17.4071 -18.7164
ltibia 28.2584
lfoot -19.0802 11.9186
ltoes -27.8948
1027
root 5.78075 17.5425 2.33009 289.655 89.265 283.964
lowerback 0.210357 1.0057 0.572063
upperback -1.79787 1.36969 0.464955
thorax -1.95739 0.684627 0.129541
lowerneck -21.6088 1.57594 2.54651
upperneck 27.9262 1.69154 0.0515445
head 12.9701 1.16646 -0.0871234
rclavicle -1.21445e-015 1.20265e-014
rhumerus -6.25241 -24.793 -4.86727
rradius 18.2969
rwrist 8.50303
rhand -18.8687 11.5992
rfingers 7.12502
rthumb 7.4319 -18.2503
lclavicle -1.21445e-015 1.20265e-014
lhumerus -11.4432 10.4724 9.14304
lradius 39.2516
lwrist 28.2686
lhand -24.4865 58.4284
lfingers 7.12502
lthumb 2.00755 -271.601
rfemur -6.83648 12.1948 23.4389
rtibia 21.1346
rfoot -13.9158 -19.5369
rtoes -17.4273
lfemur -12.7297 -17.2768 -18.6869
ltibia 28.3068
lfoot -19.1272 11.8578
ltoes -27.8178
1028
root 5.7857 17.5421 2.33007 291.331 89.2083 285.681
lowerback 0.229803 1.01098 0.597348
upperback -1.78964 1.37726 0.47508
thorax -1.95952 0.688044 0.125329
lowerneck -21.6421 1.55953 2.48927
upperneck 28.0161 1.69351 0.0462246
head 13.0132 1.16205 -0.0780644
rclavicle -1.02188e-015 8.64713e-015
rhumerus -6.24841 -24.6437 -4.82117
rradius 18.2694
rwrist 8.35425
rhand -19.0117 11.6259
rfingers 7.12502
rthumb 7.29388 -18.2284
lclavicle -1.02188e-015 8.64713e-015
lhumerus -11.4519 10.4915 9.19506
lradius 39.3944
lwrist 29.0981
lhand -24.8965 58.7564
lfingers 7.12502
lthumb 1.61156 -271.27
rfemur -6.75947 12.0396 23.4952
rtibia 21.0812
rfoot -13.9033 -19.3684
rtoes -17.3561
lfemur -12.6878 -17.0789 -18.6524
ltibia 28.346
lfoot -19.1835 11.7218
ltoes -27.8212
1029
root 5.79049 17.5406 2.33003 293.874 89.1633 288.26
lowerback 0.224849 1.01852 0.605103
upperback -1.76038 1.38679 0.475911
thorax -1.92651 0.692648 0.122104
lowerneck -21.6801 1.55002 2.43996
upperneck 28.054 1.69037 0.0690445
head 13.0357 1.15886 -0.0607879
rclavicle 1.58562e-014 1.00386e-014
rhumerus -6.23446 -24.5557 -4.81726
rradius 18.254
rwrist 8.22641
rhand -19.0449 11.6732
rfingers 7.12502
rthumb 7.26185 -18.1822
lclavicle 1.58562e-014 1.00386e-014
lhumerus -11.394 10.796 9.27647
lradius 39.391
lwrist 29.6327
lhand -25.0739 59.1277
lfingers 7.12502
lthumb 1.4402 -270.897
rfemur -6.68656 11.8769 23.5288
rtibia 21.0352
rfoot -13.955 -19.1797
rtoes -17.2258
lfemur -12.6409 -16.9414 -18.636
ltibia 28.3728
lfoot -19.2354 11.6461
ltoes -27.8412
1030
root 5.79413 17.5398 2.32997 296.623 89.1164 291.05
lowerback 0.243317 1.02598 0.617181
upperback -1.73305 1.39638 0.471861
thorax -1.90842 0.697108 0.110976
lowerneck -21.6856 1.55081 2.41643
upperneck 28.0334 1.69734 0.073187
head 13.0281 1.15928 -0.0541769
rclavicle 7.19041e-015 3.57812e-015
rhumerus -6.17903 -24.6271 -4.88216
rradius 18.2354
rwrist 8.2466
rhand -18.9827 11.678
rfingers 7.12502
rthumb 7.32189 -18.1753
lclavicle 7.19041e-015 3.57812e-015
lhumerus -11.3618 11.1044 9.34147
lradius 39.312
lwrist 30.0396
lhand -24.9637 59.4422
lfingers 7.12502
lthumb 1.54658 -270.584
rfemur -6.61712 11.8175 23.5619
rtibia 20.9992
rfoot -13.9627 -19.0626
rtoes -17.1858
lfemur -12.5874 -16.7884 -18.623
ltibia 28.3917
lfoot -19.2616 11.5393
ltoes -27.8662
1031
root 5.79661 17.5401 2.32935 299.062 89.0911 293.522
lowerback 0.286038 1.02191 0.606249
upperback -1.73001 1.39107 0.473251
thorax -1.9296 0.694515 0.117796
lowerneck -21.6528 1.57431 2.42016
upperneck 27.9933 1.73902 0.0439089
head 13.0057 1.17319 -0.0595726
rclavicle -3.21783e-015 -8.94531e-015
rhumerus -6.07828 -24.7434 -4.99316
rradius 18.1962
rwrist 8.31396
rhand -18.9717 11.6912
rfingers 7.12502
rthumb 7.33249 -18.1618
lclavicle -3.21783e-015 -8.94531e-015
lhumerus -11.3822 11.2707 9.42245
lradius 39.2661
lwrist 30.5242
lhand -24.8841 59.597
lfingers 7.12502
lthumb 1.62351 -270.429
rfemur -6.56162 11.8084 23.5706
rtibia 20.962
rfoot -13.9486 -18.9962
rtoes -17.1447
lfemur -12.5611 -16.6369 -18.6294
ltibia 28.4146
lfoot -19.2785 11.3995
ltoes -27.9035
1032
root 5.79854 17.5397 2.32696 301.164 89.0636 295.652
lowerback 0.330501 1.02574 0.627879
upperback -1.72448 1.39655 0.465684
thorax -1.94819 0.696701 0.0970143
lowerneck -21.6389 1.59086 2.45773
upperneck 27.9679 1.77035 -0.0244346
head 12.994 1.18089 -0.0873744
rclavicle 1.27533e-014 1.16289e-014
rhumerus -6.02619 -24.8264 -5.09289
rradius 18.1896
rwrist 8.32883
rhand -18.8566 11.6064
rfingers 7.12502
rthumb 7.44359 -18.2426
lclavicle 1.27533e-014 1.16289e-014
lhumerus -11.3316 11.4908 9.56018
lradius 39.1788
lwrist 30.7898
lhand -24.763 59.7335
lfingers 7.12502
lthumb 1.7405 -270.294
rfemur -6.51832 11.7204 23.5701
rtibia 20.9297
rfoot -13.9022 -18.886
rtoes -17.4046
lfemur -12.5302 -16.5807 -18.6395
ltibia 28.4383
lfoot -19.3132 11.3486
ltoes -27.8416
1033
root 5.80004 17.5379 2.32434 302.643 88.9942 297.171
lowerback 0.383192 1.05054 0.709416
upperback -1.7102 1.43071 0.452737
thorax -1.96077 0.7122 0.0365532
lowerneck -21.6214 1.60731 2.55616
upperneck 27.9305 1.7884 -0.122919
head 12.9776 1.18499 -0.13957
rclavicle -4.21796e-015 4.87022e-015
rhumerus -6.08186 -24.6641 -5.18265
rradius 18.2505
rwrist 8.09384
rhand -18.7499 11.4531
rfingers 7.12502
rthumb 7.54657 -18.3923
lclavicle -4.21796e-015 4.87022e-015
lhumerus -11.306 11.4557 9.69925
lradius 39.2104
lwrist 31.0827
lhand -24.7518 59.9889
lfingers 7.12502
lthumb 1.7513 -270.039
rfemur -6.48328 11.6104 23.6134
rtibia 20.9241
rfoot -13.8678 -18.7494
rtoes -17.5966
lfemur -12.4667 -16.5758 -18.6103
ltibia 28.4462
lfoot -19.355 11.3727
ltoes -27.6466
1034
root 5.80207 17.5361 2.32306 305.77 88.9541 300.32
lowerback 0.406052 1.07403 0.707886
upperback -1.69871 1.46195 0.451262
thorax -1.96168 0.727743 0.0349223
lowerneck -21.5769 1.65034 2.69479
upperneck 27.8701 1.84181 -0.256914
head 12.9477 1.20377 -0.206522
rclavicle 1.32751e-014 3.67752e-015
rhumerus -6.12954 -24.4388 -5.28201
rradius 18.3211
rwrist 7.8224
rhand -18.7352 11.4591
rfingers 7.12502
rthumb 7.56076 -18.3858
lclavicle 1.32751e-014 3.67752e-015
lhumerus -11.3799 11.2993 9.85051
lradius 39.325
lwrist 31.4167
lhand -25.0208 60.15
lfingers 7.12502
lthumb 1.49148 -90.1245
rfemur -6.47511 11.5284 23.6095
rtibia 20.9393
rfoot -13.8915 -18.624
rtoes -17.6198
lfemur -12.4158 -16.5566 -18.626
ltibia 28.4381
lfoot -19.3623 11.4187
ltoes -27.6556
